<?xml version="1.0" standalone="no"?>
<!DOCTYPE svg PUBLIC "-//W3C//DTD SVG 20010904//EN"
 "http://www.w3.org/TR/2001/REC-SVG-20010904/DTD/svg10.dtd">
<svg version="1.0" xmlns="http://www.w3.org/2000/svg"
 width="250px" height="250px" viewBox="0 0 1037.000000 839.000000"
 preserveAspectRatio="xMidYMid meet">

<g transform="translate(0.000000,839.000000) scale(0.100000,-0.100000)"
fill="#000000" stroke="none">
<path d="M5285 7620 c-3 -5 -36 -10 -73 -10 -242 0 -676 -85 -971 -190 -511
-181 -926 -443 -1312 -829 -219 -219 -380 -423 -529 -670 -262 -436 -423 -925
-481 -1461 -16 -148 -16 -522 0 -670 76 -709 320 -1302 763 -1863 104 -131
384 -411 515 -515 427 -338 867 -556 1366 -677 227 -55 497 -95 649 -95 37 0
70 -4 73 -10 3 -6 52 -10 110 -10 58 0 107 4 110 10 3 6 36 10 73 10 231 0
631 76 929 175 516 173 959 449 1354 844 395 395 671 838 844 1354 99 298 175
698 175 929 0 37 5 70 10 73 6 3 10 52 10 110 0 58 -4 107 -10 110 -5 3 -10
36 -10 73 0 231 -76 631 -175 929 -173 516 -449 959 -844 1354 -396 396 -838
671 -1354 844 -298 99 -698 175 -929 175 -37 0 -70 5 -73 10 -3 6 -52 10 -110
10 -58 0 -107 -4 -110 -10z m-144 -319 c30 -10 86 -33 126 -50 104 -45 144
-42 298 20 126 51 127 51 223 47 120 -4 172 -26 290 -122 126 -102 150 -108
344 -84 213 26 332 -35 480 -244 68 -96 102 -116 245 -138 145 -23 194 -40
258 -88 84 -63 118 -121 190 -316 19 -53 60 -105 97 -123 12 -7 67 -32 120
-57 203 -93 287 -228 288 -462 0 -57 20 -123 47 -158 10 -12 59 -57 109 -98
135 -113 186 -207 186 -348 0 -41 -8 -106 -17 -144 -22 -93 -22 -173 -1 -215
10 -18 41 -65 68 -104 72 -101 99 -167 105 -257 7 -95 -11 -163 -74 -279 -65
-120 -68 -173 -19 -312 82 -229 53 -355 -121 -541 -96 -102 -98 -109 -94 -333
2 -101 -1 -130 -18 -176 -45 -118 -98 -176 -238 -259 -76 -44 -127 -94 -144
-139 -6 -14 -19 -69 -30 -121 -25 -121 -56 -187 -118 -253 -60 -63 -127 -100
-246 -132 -99 -28 -161 -60 -192 -102 -11 -16 -40 -67 -63 -113 -52 -104 -123
-181 -204 -220 -74 -36 -149 -50 -279 -50 -128 0 -165 -17 -255 -118 -157
-176 -301 -216 -531 -147 -134 40 -172 34 -300 -44 -120 -72 -174 -90 -267
-91 -105 0 -158 17 -278 89 -139 85 -153 86 -355 31 -93 -25 -172 -25 -248 -2
-81 26 -124 56 -233 164 -111 110 -130 118 -278 118 -123 0 -190 13 -263 52
-80 42 -129 97 -202 228 -77 139 -102 159 -247 201 -133 38 -189 69 -253 139
-63 68 -81 109 -112 251 -36 160 -48 177 -202 273 -108 67 -154 115 -197 205
-31 66 -31 67 -31 236 -1 202 -4 211 -110 325 -87 92 -119 145 -141 230 -22
87 -14 161 30 286 53 147 51 178 -25 336 -54 113 -61 135 -66 205 -9 122 15
188 117 333 25 36 51 78 58 93 16 37 15 128 -2 202 -33 145 -28 233 21 329 34
67 70 107 169 188 107 89 122 119 134 275 12 162 37 229 118 315 49 52 108 89
217 134 102 42 143 87 185 204 45 128 60 157 115 218 68 75 160 118 295 136
166 23 193 39 276 156 103 147 184 207 316 231 54 10 84 9 176 -4 148 -22 185
-14 278 58 114 89 140 105 201 131 75 31 194 33 274 5z" fill="#57585a"/>
<path d="M4892 7186 c-29 -14 -85 -52 -125 -84 -143 -117 -199 -133 -379 -108
-113 15 -128 15 -183 1 -85 -22 -130 -58 -199 -155 -118 -165 -172 -199 -351
-224 -129 -18 -171 -33 -225 -82 -53 -48 -73 -83 -110 -189 -60 -170 -109
-221 -278 -294 -177 -75 -224 -143 -241 -346 -15 -189 -42 -242 -179 -351
-156 -125 -191 -222 -146 -409 9 -38 17 -101 17 -140 0 -87 -23 -144 -105
-258 -109 -153 -114 -233 -24 -417 87 -178 90 -238 25 -410 -25 -65 -32 -101
-32 -155 -1 -95 21 -139 128 -259 127 -143 130 -153 130 -366 0 -196 5 -217
71 -290 21 -23 76 -65 123 -93 101 -61 165 -122 191 -180 11 -24 29 -87 40
-142 27 -124 47 -172 94 -218 48 -48 92 -70 206 -102 170 -48 220 -88 299
-242 59 -115 105 -167 181 -201 48 -22 73 -26 205 -32 192 -8 214 -17 347
-152 119 -121 160 -143 268 -142 52 0 103 9 169 28 77 23 107 28 163 24 73 -6
113 -23 256 -108 64 -38 82 -44 146 -48 89 -5 116 3 235 73 160 95 230 105
386 58 191 -57 287 -33 418 107 133 142 199 170 397 170 100 0 122 3 166 24
72 34 116 82 171 188 82 160 148 215 313 258 105 28 149 50 195 95 50 51 73
102 96 218 36 176 78 235 225 324 109 65 166 123 190 196 14 42 16 73 11 178
-10 199 9 251 142 393 95 102 116 147 115 246 -1 59 -8 93 -33 160 -64 166
-59 238 24 404 91 181 87 254 -23 415 -113 167 -127 224 -93 381 39 178 23
268 -63 354 -28 28 -83 79 -123 113 -96 84 -122 138 -134 282 -11 138 -17 167
-39 212 -38 74 -68 98 -215 169 -187 91 -216 125 -284 332 -27 80 -89 156
-155 188 -25 11 -98 29 -163 39 -189 29 -234 57 -343 211 -115 163 -190 194
-393 166 -178 -24 -241 -7 -377 105 -103 84 -157 109 -244 109 -59 0 -83 -6
-180 -47 -106 -46 -115 -48 -206 -48 -91 0 -99 2 -195 44 -84 38 -112 45 -175
48 -64 3 -83 0 -128 -21z m-1257 -2171 c124 -33 255 -144 315 -270 57 -119 60
-161 60 -748 l0 -532 -125 -118 -125 -119 0 669 c0 416 -4 693 -11 733 -20
129 -87 228 -185 276 -49 24 -63 26 -137 22 -59 -3 -94 -11 -125 -27 -94 -48
-166 -150 -191 -269 -7 -35 -11 -239 -11 -611 l0 -559 -122 -117 -123 -118 -3
654 -2 654 182 183 c171 171 273 255 344 282 80 31 175 37 259 15z m1410 0
c129 -34 241 -125 307 -251 48 -92 68 -176 68 -294 l0 -96 -237 -235 c-247
-245 -278 -268 -394 -299 -62 -17 -186 -15 -238 4 l-44 16 6 -122 c6 -137 25
-208 77 -283 109 -159 347 -177 508 -40 56 49 110 159 120 245 l7 65 93 3 c55
2 92 -1 92 -7 0 -12 -143 -199 -226 -296 -115 -132 -242 -195 -398 -195 -141
0 -254 49 -362 155 -48 47 -81 91 -102 135 -57 116 -62 162 -62 606 l0 400
213 211 c221 219 259 248 370 278 69 18 130 18 202 0z m1379 -24 c73 -33 156
-94 156 -114 0 -18 -132 -144 -137 -131 -15 40 -68 106 -105 131 -60 41 -100
53 -178 53 -219 0 -384 -249 -285 -428 56 -103 157 -177 390 -287 208 -98 266
-134 345 -215 73 -75 121 -155 144 -245 l16 -60 -168 -169 c-92 -92 -193 -188
-225 -211 -192 -144 -419 -120 -602 65 l-70 70 85 85 c47 47 88 85 91 85 4 0
10 -12 14 -27 16 -68 76 -173 118 -207 157 -128 385 -70 479 122 61 123 41
220 -67 328 -70 71 -141 115 -325 201 -85 40 -188 94 -229 120 -128 83 -221
206 -256 339 l-16 59 198 195 c129 127 216 205 249 223 125 66 258 73 378 18z
m1095 28 c65 -15 149 -59 198 -104 l44 -40 -69 -68 -69 -69 -26 45 c-71 120
-206 175 -344 138 -99 -27 -198 -130 -230 -240 -13 -45 -13 -64 -4 -106 31
-136 152 -239 437 -370 82 -37 178 -87 214 -111 125 -82 211 -195 252 -328
l21 -69 -199 -197 c-165 -163 -210 -202 -264 -229 -187 -91 -362 -56 -528 104
l-77 74 85 85 c46 47 87 86 91 86 3 0 18 -33 33 -72 39 -105 82 -159 157 -197
157 -79 341 -10 425 159 42 84 44 146 5 225 -56 113 -181 206 -424 315 -201
90 -285 149 -367 259 -51 68 -100 181 -100 230 0 23 34 61 193 217 158 156
204 195 258 221 104 51 193 64 288 42z" fill="#57585a"/>
<path d="M4742 4913 c-63 -22 -146 -103 -181 -177 -43 -90 -51 -160 -51 -472
l0 -281 40 -7 c51 -8 121 8 185 42 32 17 120 96 243 216 l192 189 0 91 c0 95
-19 195 -46 248 -27 52 -97 120 -149 144 -59 28 -165 31 -233 7z" fill="#57585a"/>
</g>
</svg>
